<?xml version="1.0" encoding="utf-8"?>
<!-- Generator: Adobe Illustrator 17.0.0, SVG Export Plug-In . SVG Version: 6.00 Build 0)  -->
<!DOCTYPE svg PUBLIC "-//W3C//DTD SVG 1.1//EN" "http://www.w3.org/Graphics/SVG/1.1/DTD/svg11.dtd">
<svg version="1.1" id="Layer_1" xmlns="http://www.w3.org/2000/svg" xmlns:xlink="http://www.w3.org/1999/xlink" x="0px" y="0px"
	 width="32px" height="32px" viewBox="0 0 32 32" enable-background="new 0 0 32 32" xml:space="preserve">
<path fill="#FFFFFF" d="M16,0C7.163,0,0,7.163,0,16s7.163,16,16,16s16-7.163,16-16S24.837,0,16,0z M16,29.5
	C8.544,29.5,2.5,23.456,2.5,16S8.544,2.5,16,2.5s13.5,6,13.5,13.5S23.456,29.5,16,29.5z"/>
<g>
	<polygon fill="#FFFFFF" points="8.198,23.012 8.197,23.006 8.195,23.006 	"/>
	<path fill="#FFFFFF" d="M15.42,12.557C13.605,9.33,11.665,6.7,11.524,6.514C8.6,7.894,6.417,10.59,5.736,13.838
		C6.012,13.844,10.384,13.895,15.42,12.557z"/>
	<path fill="#FFFFFF" d="M22.929,8.128c-1.847-1.629-4.274-2.618-6.928-2.618c-0.852,0-1.68,0.105-2.471,0.297
		c0.156,0.207,2.126,2.825,3.92,6.121C21.409,10.443,22.902,8.17,22.929,8.128z"/>
	<path fill="#FFFFFF" d="M13.488,5.815c-0.012,0.003-0.024,0.006-0.033,0.009c0.018-0.003,0.03-0.006,0.03-0.006L13.488,5.815z"/>
	<path fill="#FFFFFF" d="M16.727,16.081c0.138-0.042,0.273-0.084,0.414-0.123c-0.264-0.597-0.552-1.197-0.852-1.784
		c-5.401,1.616-10.583,1.5-10.769,1.496C5.517,15.778,5.511,15.889,5.511,16c0,2.693,1.017,5.149,2.684,7.006
		C8.198,23,11.07,17.91,16.727,16.081z"/>
	<path fill="#FFFFFF" d="M17.786,17.718c-6.1,2.123-8.148,6.373-8.226,6.538c1.78,1.389,4.008,2.234,6.442,2.234
		c1.451,0,2.837-0.294,4.094-0.831c-0.153-0.918-0.765-4.13-2.24-7.965C17.831,17.703,17.81,17.709,17.786,17.718z"/>
	<path fill="#FFFFFF" d="M9.554,24.271c0,0,0.006-0.012,0.006-0.015c-0.076-0.063-0.165-0.108-0.24-0.168
		C9.458,24.199,9.554,24.271,9.554,24.271z"/>
	<path fill="#FFFFFF" d="M18.257,13.49c0.246,0.498,0.48,1.008,0.699,1.52c0.078,0.183,0.153,0.363,0.225,0.543
		c3.605-0.453,7.156,0.309,7.309,0.342c-0.027-2.489-0.915-4.771-2.387-6.559C24.084,9.366,22.401,11.798,18.257,13.49z"/>
	<path fill="#FFFFFF" d="M19.822,17.209c1.373,3.782,1.934,6.859,2.039,7.491c2.357-1.59,4.031-4.112,4.495-7.033
		C26.141,17.595,23.208,16.666,19.822,17.209z"/>
</g>
</svg>
